# xmcd CD database file
#
# Track frame offsets:
#	150
#	10848
#	23421
#	35619
#	49692
#	61665
#	71013
#	81111
#	93609
#
# Disc length: 1411 seconds
#
# Revision: 0
# Processed by: cddbd v1.5.2PL0 Copyright (c) Steve Scherf et al.
# Submitted via: CDex 1.70beta2
#
DISCID=66058109
DTITLE=Smith, Carl - USA - Knee Deep in Blues
DYEAR=1900
DGENRE=Country
TTITLE0=Knee Deep In Blues
TTITLE1=Almost Forgot Her Today
TTITLE2=Here Come My Baby Back Again
TTITLE3=The Party's Over
TTITLE4=I Really Don't WWant To Know
TTITLE5=Waterloo
TTITLE6=Greener Pastures
TTITLE7=Ain't :ove A Hurting Thing
TTITLE8=Beautiful Wings
EXTD=
EXTT0=
EXTT1=
EXTT2=
EXTT3=
EXTT4=
EXTT5=
EXTT6=
EXTT7=
EXTT8=
PLAYORDER=
